<svg width="41" height="40" viewBox="0 0 41 40" fill="none" xmlns="http://www.w3.org/2000/svg">
<path d="M20.4997 36.6673L13.4163 29.584L15.7913 27.209L18.833 30.2506V21.6673H10.2913L13.333 24.6673L10.9163 27.084L3.83301 20.0007L10.8747 12.959L13.2497 15.334L10.2497 18.334H18.833V9.75065L15.7913 12.7923L13.4163 10.4173L20.4997 3.33398L27.583 10.4173L25.208 12.7923L22.1663 9.75065V18.334H30.708L27.6663 15.334L30.083 12.9173L37.1663 20.0007L30.083 27.084L27.708 24.709L30.7497 21.6673H22.1663V30.209L25.1663 27.1673L27.583 29.584L20.4997 36.6673Z" fill="white"/>
</svg>
